<svg width="327" height="160" viewBox="0 0 327 160" fill="none" xmlns="http://www.w3.org/2000/svg">
<rect width="327" height="160" rx="15" fill="#4BCF82"/>
<mask id="mask0_0_81" style="mask-type:luminance" maskUnits="userSpaceOnUse" x="0" y="0" width="327" height="160">
<rect width="327" height="160" rx="15" fill="white"/>
</mask>
<g mask="url(#mask0_0_81)">
<path fill-rule="evenodd" clip-rule="evenodd" d="M306.571 31.7925L306.571 32.0521C306.571 33.2166 306.117 34.3118 305.294 35.1354C304.472 35.9581 303.375 36.4124 302.211 36.4124L286.44 36.4115C284.094 36.4124 282.048 34.3667 282.048 32.0192L282.047 23.6142L269.997 23.605L270.007 38.7743C270.008 39.201 269.797 39.6006 269.446 39.8419L251.349 52.2515C249.986 53.1009 248.391 53.2846 246.923 52.7891C246.163 52.5323 245.484 52.1072 244.929 51.5524C244.414 51.0368 244.005 50.4089 243.736 49.7013C242.861 47.4088 243.81 44.768 245.992 43.4252L258.295 34.4516L258.547 23.1717L244.991 23.6142C244.632 23.6261 244.286 23.4889 244.034 23.2366L231.237 10.4394C230.238 9.44021 229.687 8.05896 229.724 6.64675C229.761 5.21435 230.37 3.89627 231.438 2.93647C233.48 1.09732 236.672 1.24902 238.705 3.28201L247.281 11.858L276.725 10.2225L274.592 8.08992L262.329 8.43733C261.118 8.49128 259.91 8.02417 259.035 7.15756L259.019 7.14203C258.141 6.26362 257.681 5.08905 257.725 3.83486C257.806 1.48832 259.885 -0.420302 262.357 -0.421234L278.804 0.00476849C279.135 0.0138809 279.449 0.149118 279.684 0.384072L289.637 10.3377C290.523 11.2234 291.039 12.399 291.088 13.6495L291.602 26.5181C291.623 27.0218 292.035 27.4138 292.539 27.413L302.134 27.3628C304.586 27.3638 306.571 29.3537 306.571 31.7925ZM307.106 22.3221C304.082 25.3469 299.162 25.3469 296.137 22.3221C293.113 19.2974 293.113 14.3778 296.137 11.3529C299.162 8.32809 304.082 8.32819 307.106 11.3529C310.131 14.3777 310.131 19.2973 307.106 22.3221Z" fill="#29BA66"/>
</g>
</svg>
