<svg width="327" height="160" viewBox="0 0 327 160" fill="none" xmlns="http://www.w3.org/2000/svg">
<rect width="327" height="160" rx="15" fill="#55C2E6"/>
<mask id="mask0_0_38" style="mask-type:luminance" maskUnits="userSpaceOnUse" x="0" y="0" width="327" height="160">
<rect width="327" height="160" rx="15" fill="white"/>
</mask>
<g mask="url(#mask0_0_38)">
<path fill-rule="evenodd" clip-rule="evenodd" d="M303.224 46.9535L290.91 66.8464C287.564 72.2515 280.051 73.1172 275.561 68.6277C273.648 66.7148 272.869 63.8997 273.524 61.279L275.469 53.4969C275.803 52.1655 275.407 50.7352 274.436 49.7648L251.834 27.1629C250.864 26.1924 249.435 25.7965 248.103 26.1299L240.32 28.0751C237.7 28.7307 234.885 27.9513 232.974 26.0406C228.478 21.5442 229.353 14.0325 234.753 10.6899L254.646 -1.62402C261.968 -6.15709 270.097 -3.77065 274.554 0.686071L300.914 27.0464C307.003 33.1356 306.541 41.5949 303.224 46.9535ZM264.792 18.8343L266.683 20.726C267.598 21.6404 269.081 21.6404 269.995 20.726C270.91 19.8112 270.91 18.3284 269.995 17.414L268.104 15.5223L269.995 13.6305C270.91 12.7162 270.91 11.2333 269.995 10.3185C269.081 9.40413 267.598 9.40413 266.683 10.3185L264.792 12.2102L262.9 10.3185C261.986 9.40413 260.503 9.40413 259.588 10.3189C258.674 11.2333 258.674 12.7162 259.588 13.6305L261.48 15.5223L259.588 17.414C258.674 18.3284 258.674 19.8112 259.588 20.7256C260.503 21.6404 261.986 21.6404 262.9 20.726L264.792 18.8343ZM280.874 34.9161C279.96 34.0021 279.96 32.5184 280.874 31.6045C281.788 30.6901 283.272 30.6906 284.186 31.6041C285.1 32.5184 285.1 34.0021 284.186 34.9165C283.272 35.8305 281.788 35.8305 280.874 34.9161ZM280.874 38.6995C279.96 39.6135 279.96 41.0976 280.874 42.0116C281.788 42.9255 283.272 42.9255 284.186 42.0116C285.099 41.0976 285.1 39.6135 284.186 38.6995C283.272 37.7856 281.787 37.7856 280.874 38.6995ZM287.969 34.9165C287.055 34.0026 287.055 32.5184 287.969 31.6041C288.883 30.6901 290.367 30.6906 291.281 31.6045C292.195 32.5184 292.195 34.0021 291.281 34.9161C290.367 35.8305 288.883 35.8305 287.969 34.9165ZM287.969 38.6995C287.055 39.6135 287.055 41.0976 287.969 42.0116C288.883 42.9255 290.367 42.9255 291.281 42.0116C292.195 41.0972 292.195 39.6135 291.281 38.6995C290.367 37.7856 288.883 37.7852 287.969 38.6995Z" fill="#3F9CBB"/>
</g>
</svg>
