<svg width="327" height="160" viewBox="0 0 327 160" fill="none" xmlns="http://www.w3.org/2000/svg">
<rect width="327" height="160" rx="15" fill="#7335D2"/>
<mask id="mask0_0_99" style="mask-type:luminance" maskUnits="userSpaceOnUse" x="0" y="0" width="327" height="160">
<rect width="327" height="160" rx="15" fill="white"/>
</mask>
<g mask="url(#mask0_0_99)">
<path fill-rule="evenodd" clip-rule="evenodd" d="M304.092 31.2242C297.934 37.3814 289.615 36.4078 284.834 31.6266L274.335 21.1275L260.861 21.9049C258.959 22.0161 257.937 19.711 259.276 18.3724L265.541 12.1071C261.742 6.89567 262.192 -0.469298 266.893 -5.16995C273.021 -11.2987 281.336 -10.3863 286.15 -5.57233L304.092 12.3689C309.289 17.5666 309.29 26.0255 304.092 31.2242ZM296.239 23.7743C297.241 22.7722 297.241 21.1471 296.238 20.144C295.236 19.142 293.611 19.142 292.609 20.144C291.607 21.1461 291.607 22.7712 292.609 23.7733C293.612 24.7763 295.237 24.7763 296.239 23.7743ZM274.745 5.90925C273.743 4.9072 273.743 3.28204 274.745 2.27999C275.747 1.27794 277.372 1.27794 278.374 2.27999C279.377 3.28302 279.377 4.90818 278.375 5.91023C277.373 6.91228 275.748 6.91228 274.745 5.90925ZM287.307 14.8418C288.309 13.8397 288.309 12.2145 287.307 11.2125C286.305 10.2104 284.679 10.2104 283.677 11.2125C282.675 12.2145 282.675 13.8397 283.677 14.8418C284.679 15.8438 286.305 15.8438 287.307 14.8418Z" fill="#5A1CBB"/>
<path fill-rule="evenodd" clip-rule="evenodd" d="M276.219 30.7564L294.16 48.6976C299.031 53.5687 299.817 61.8961 293.757 67.9553C289.057 72.656 281.692 73.1062 276.48 69.307L270.215 75.5723C268.868 76.9194 266.571 75.874 266.682 73.9881L267.459 60.5142L256.96 50.0151C252.101 45.1562 251.29 36.8296 257.362 30.7574C262.561 25.5586 271.021 25.5586 276.219 30.7564ZM264.813 38.6086C263.81 39.6117 263.81 41.2368 264.813 42.2398C265.815 43.2419 267.441 43.2419 268.444 42.2389C269.446 41.2368 269.446 39.6117 268.444 38.6096C267.441 37.6066 265.815 37.6066 264.813 38.6086ZM273.745 51.1714C272.743 50.1693 272.743 48.5442 273.746 47.5411C274.748 46.5391 276.373 46.5391 277.375 47.5411C278.377 48.5432 278.377 50.1683 277.375 51.1704C276.372 52.1734 274.747 52.1734 273.745 51.1714ZM282.677 56.4727C281.674 57.4757 281.674 59.1008 282.677 60.1039C283.679 61.1059 285.305 61.1059 286.308 60.1029C287.31 59.1008 287.31 57.4757 286.308 56.4736C285.305 55.4706 283.679 55.4706 282.677 56.4727Z" fill="#5A1CBB"/>
</g>
</svg>
