<svg width="327" height="160" viewBox="0 0 327 160" fill="none" xmlns="http://www.w3.org/2000/svg">
<rect width="327" height="160" rx="15" fill="#FF5E7D"/>
<mask id="mask0_0_61" style="mask-type:luminance" maskUnits="userSpaceOnUse" x="0" y="0" width="327" height="160">
<rect width="327" height="160" rx="15" fill="white"/>
</mask>
<g mask="url(#mask0_0_61)">
<path fill-rule="evenodd" clip-rule="evenodd" d="M308.059 35.6805L309.381 37.0034C310.113 37.7346 310.113 38.918 309.381 39.6492L277.632 71.3982C276.901 72.1294 275.718 72.1294 274.987 71.3982L260.121 56.5323C258.034 57.5257 255.457 57.1602 253.732 55.4355L248.441 50.144C246.716 48.4193 246.351 45.842 247.344 43.7556L232.478 28.8898C231.747 28.1586 231.747 26.9752 232.478 26.244L264.227 -5.50501C264.958 -6.23621 266.142 -6.23621 266.873 -5.50501L268.196 -4.18213L240.415 23.5983C238.227 25.7867 238.315 29.4353 240.504 31.6237L252.636 43.7556C251.642 45.8421 252.008 48.4193 253.732 50.144C255.457 51.8687 258.034 52.2343 260.121 51.2408L272.253 63.3727C274.441 65.5611 278.09 65.6493 280.278 63.4609L308.059 35.6805ZM289.014 12.2166L258.67 42.5604C259.019 41.0333 259.852 35.0971 253.732 28.978C253.001 28.2468 253.001 27.0634 253.732 26.3322L280.19 -0.125311C280.921 -0.856508 282.104 -0.856508 282.836 -0.125311C287.325 4.36365 288.713 8.85534 289.014 12.2166ZM261.67 47.4982L274.898 60.727C275.63 61.4582 276.813 61.4582 277.544 60.727L306.647 31.6237C307.379 30.8925 307.379 29.7092 306.647 28.978L296.064 18.395C294.57 16.9003 292.688 16.0525 290.739 15.783L259.024 47.4982C259.754 46.7684 260.94 46.7684 261.67 47.4982ZM272.253 -2.77106C272.984 -3.50226 274.167 -3.50226 274.898 -2.77106L276.221 -1.44819L251.087 23.6865C248.898 25.8749 248.898 29.4353 251.087 31.6237C255.092 35.629 255.287 39.3197 255.13 40.9586L243.149 28.978C242.418 28.2468 242.418 27.0634 243.149 26.3322L272.253 -2.77106Z" fill="#F04667"/>
</g>
</svg>
