<svg width="327" height="160" viewBox="0 0 327 160" fill="none" xmlns="http://www.w3.org/2000/svg">
<rect width="327" height="160" rx="15" fill="#FF8B64"/>
<mask id="mask0_0_19" style="mask-type:luminance" maskUnits="userSpaceOnUse" x="0" y="0" width="327" height="160">
<rect width="327" height="160" rx="15" fill="white"/>
</mask>
<g mask="url(#mask0_0_19)">
<path fill-rule="evenodd" clip-rule="evenodd" d="M302.499 45.7176L307.227 40.9897C310.365 37.8516 310.365 32.7727 307.227 29.6345L296.388 18.7955L298.452 16.7309C300.73 14.4536 300.73 10.7498 298.452 8.47254L290.194 0.2142C287.917 -2.06304 284.213 -2.06304 281.936 0.2142L279.871 2.27879L269.032 -8.56028C265.894 -11.6985 260.815 -11.6985 257.677 -8.56028L252.949 -3.83239L269.135 28.5403C269.239 28.7674 269.383 28.9532 269.548 29.1184C269.713 29.2835 269.899 29.4281 270.126 29.5313L302.499 45.7176ZM284 6.40795L292.259 14.6663L294.323 12.6017L286.065 4.34337L284 6.40795ZM268.165 33.4334C267.649 33.2063 267.009 32.7727 266.451 32.2153C265.894 31.6578 265.46 31.0178 265.151 30.3365L249.687 -0.570342L233.934 15.1824C230.796 18.3206 230.796 23.3995 233.934 26.5377L272.129 64.7325C275.267 67.8706 280.346 67.8706 283.484 64.7325L299.237 48.9797L268.165 33.4334Z" fill="#D96C47"/>
</g>
</svg>
