<svg width="327" height="160" viewBox="0 0 327 160" fill="none" xmlns="http://www.w3.org/2000/svg">
<rect width="327" height="160" rx="15" fill="#F1C75B"/>
<mask id="mask0_0_125" style="mask-type:luminance" maskUnits="userSpaceOnUse" x="0" y="0" width="327" height="160">
<rect width="327" height="160" rx="15" fill="white"/>
</mask>
<g mask="url(#mask0_0_125)">
<path fill-rule="evenodd" clip-rule="evenodd" d="M245.937 40.1386L245.918 39.8484L245.918 39.8479C244.585 19.6965 243.705 6.38368 253.875 -3.78642C262.288 -12.1999 275.484 -12.1851 283.917 -3.75242C287.707 0.0376089 290.028 5.20599 290.443 10.5583C295.794 10.9732 300.963 13.294 304.753 17.0839C313.185 25.5161 313.2 38.7118 304.786 47.1254C300.136 51.7758 293.774 54.3482 284.766 55.221C277.054 55.9684 267.903 55.4918 255.817 54.7367L255.779 54.7342L249.741 54.2867C248.932 54.2267 248.205 53.8746 247.666 53.3352C247.127 52.7959 246.775 52.0694 246.715 51.2602L246.267 45.2217C246.266 45.2104 246.265 45.199 246.264 45.1877L246.264 45.1838C246.156 43.4514 246.045 41.7703 245.937 40.1386ZM272.532 22.2948L266.36 16.1225L260.201 22.2811L266.374 28.4534L260.215 34.6118L266.388 40.7844L272.546 34.626L278.719 40.7984L284.877 34.6398L278.705 28.4674L284.864 22.3086L278.691 16.136L272.532 22.2948Z" fill="#E6A532"/>
</g>
</svg>
